<svg xmlns="http://www.w3.org/2000/svg" viewBox="0 0 1200 720" font-family="'Inter', 'Segoe UI', system-ui, -apple-system, sans-serif">
  <defs>
    <linearGradient id="bg" x1="0" y1="0" x2="0" y2="1">
      <stop offset="0%" stop-color="#0a0a1a"/>
      <stop offset="100%" stop-color="#0d1025"/>
    </linearGradient>
    <linearGradient id="deltaGrad" x1="0" y1="0" x2="1" y2="1">
      <stop offset="0%" stop-color="#3b82f6"/>
      <stop offset="100%" stop-color="#6366f1"/>
    </linearGradient>
    <linearGradient id="attnGrad" x1="0" y1="0" x2="1" y2="1">
      <stop offset="0%" stop-color="#f97316"/>
      <stop offset="100%" stop-color="#ef4444"/>
    </linearGradient>
    <linearGradient id="saeGrad" x1="0" y1="0" x2="0" y2="1">
      <stop offset="0%" stop-color="#10b981"/>
      <stop offset="100%" stop-color="#059669"/>
    </linearGradient>
    <filter id="glow">
      <feGaussianBlur stdDeviation="3" result="blur"/>
      <feComposite in="SourceGraphic" in2="blur" operator="over"/>
    </filter>
    <filter id="saeGlow">
      <feGaussianBlur stdDeviation="4" result="blur"/>
      <feMerge>
        <feMergeNode in="blur"/>
        <feMergeNode in="SourceGraphic"/>
      </feMerge>
    </filter>
    <filter id="softShadow">
      <feDropShadow dx="0" dy="2" stdDeviation="4" flood-color="#000" flood-opacity="0.3"/>
    </filter>
  </defs>

  <!-- Background -->
  <rect width="1200" height="720" fill="url(#bg)"/>

  <!-- Subtle grid -->
  <g opacity="0.04" stroke="#fff">
    <line x1="0" y1="180" x2="1200" y2="180"/>
    <line x1="0" y1="360" x2="1200" y2="360"/>
    <line x1="0" y1="540" x2="1200" y2="540"/>
  </g>

  <!-- Title -->
  <text x="600" y="52" text-anchor="middle" fill="#f8fafc" font-size="26" font-weight="700" letter-spacing="0.5">QwenScope — SAE Hook Points on Qwen 3.5-35B-A3B</text>
  <text x="600" y="80" text-anchor="middle" fill="#94a3b8" font-size="14" letter-spacing="0.3">40 layers = 10 blocks × [DeltaNet, DeltaNet, DeltaNet, Attention] — MoE FFN at every layer (256 experts, 8+1 active)</text>

  <!-- Legend -->
  <g transform="translate(283, 660)">
    <rect x="0" y="-12" width="18" height="18" rx="3" fill="url(#deltaGrad)" opacity="0.9"/>
    <text x="24" y="2" fill="#93c5fd" font-size="12" font-weight="500">GatedDeltaNet Layer</text>
    <rect x="180" y="-12" width="18" height="18" rx="3" fill="url(#attnGrad)" opacity="0.9"/>
    <text x="204" y="2" fill="#fdba74" font-size="12" font-weight="500">Attention Layer</text>
    <circle cx="369" cy="-3" r="7" fill="url(#saeGrad)" filter="url(#saeGlow)"/>
    <text x="382" y="2" fill="#6ee7b7" font-size="12" font-weight="500">SAE Hook Point</text>
    <rect x="520" y="-12" width="18" height="18" rx="3" fill="none" stroke="#475569" stroke-width="1" stroke-dasharray="3,2"/>
    <text x="544" y="2" fill="#64748b" font-size="12" font-weight="500">Inactive Layer</text>
  </g>

  <!-- Block rendering: 10 blocks, 4 layers each -->
  <!-- Block width: 90, step: 105, gap: 15 -->
  <!-- Total: 10*105 - 15 = 1035, start x = (1200-1035)/2 = 82 -->
  <g transform="translate(82, 110)">

    <!-- BLOCK 0 (layers 0-3) -->
    <g transform="translate(0, 0)">
      <rect x="0" y="20" width="90" height="70" rx="6" fill="#111827" stroke="#1e293b" stroke-width="0.5" opacity="0.6"/>
      <text x="45" y="14" text-anchor="middle" fill="#475569" font-size="10" font-weight="500">Block 0</text>
      <rect x="5" y="28" width="16" height="54" rx="3" fill="#1e3a5f" opacity="0.4"/>
      <rect x="25" y="28" width="16" height="54" rx="3" fill="#1e3a5f" opacity="0.4"/>
      <rect x="45" y="28" width="16" height="54" rx="3" fill="#1e3a5f" opacity="0.4"/>
      <rect x="65" y="28" width="16" height="54" rx="3" fill="#3b1f0b" opacity="0.4"/>
      <text x="13" y="100" text-anchor="middle" fill="#334155" font-size="8">0</text>
      <text x="33" y="100" text-anchor="middle" fill="#334155" font-size="8">1</text>
      <text x="53" y="100" text-anchor="middle" fill="#334155" font-size="8">2</text>
      <text x="73" y="100" text-anchor="middle" fill="#334155" font-size="8">3</text>
    </g>

    <!-- BLOCK 1 (layers 4-7) — SAE: layer 6 DeltaNet, layer 7 Attention — EARLY -->
    <g transform="translate(105, 0)">
      <rect x="0" y="20" width="90" height="70" rx="6" fill="#111827" stroke="#2dd4bf" stroke-width="1" opacity="0.8"/>
      <text x="45" y="14" text-anchor="middle" fill="#94a3b8" font-size="10" font-weight="600">Block 1</text>
      <rect x="5" y="28" width="16" height="54" rx="3" fill="#1e3a5f" opacity="0.4"/>
      <rect x="25" y="28" width="16" height="54" rx="3" fill="#1e3a5f" opacity="0.4"/>
      <rect x="45" y="28" width="16" height="54" rx="3" fill="url(#deltaGrad)" opacity="0.9" filter="url(#glow)"/>
      <rect x="65" y="28" width="16" height="54" rx="3" fill="url(#attnGrad)" opacity="0.9" filter="url(#glow)"/>
      <circle cx="53" cy="24" r="5" fill="url(#saeGrad)" filter="url(#saeGlow)"/>
      <circle cx="73" cy="24" r="5" fill="url(#saeGrad)" filter="url(#saeGlow)"/>
      <text x="13" y="100" text-anchor="middle" fill="#334155" font-size="8">4</text>
      <text x="33" y="100" text-anchor="middle" fill="#334155" font-size="8">5</text>
      <text x="53" y="100" text-anchor="middle" fill="#60a5fa" font-size="8" font-weight="700">6</text>
      <text x="73" y="100" text-anchor="middle" fill="#fb923c" font-size="8" font-weight="700">7</text>
    </g>

    <!-- BLOCK 2 (layers 8-11) -->
    <g transform="translate(210, 0)">
      <rect x="0" y="20" width="90" height="70" rx="6" fill="#111827" stroke="#1e293b" stroke-width="0.5" opacity="0.6"/>
      <text x="45" y="14" text-anchor="middle" fill="#475569" font-size="10" font-weight="500">Block 2</text>
      <rect x="5" y="28" width="16" height="54" rx="3" fill="#1e3a5f" opacity="0.4"/>
      <rect x="25" y="28" width="16" height="54" rx="3" fill="#1e3a5f" opacity="0.4"/>
      <rect x="45" y="28" width="16" height="54" rx="3" fill="#1e3a5f" opacity="0.4"/>
      <rect x="65" y="28" width="16" height="54" rx="3" fill="#3b1f0b" opacity="0.4"/>
      <text x="13" y="100" text-anchor="middle" fill="#334155" font-size="8">8</text>
      <text x="33" y="100" text-anchor="middle" fill="#334155" font-size="8">9</text>
      <text x="53" y="100" text-anchor="middle" fill="#334155" font-size="8">10</text>
      <text x="73" y="100" text-anchor="middle" fill="#334155" font-size="8">11</text>
    </g>

    <!-- BLOCK 3 (layers 12-15) — SAE: layer 14 DeltaNet, layer 15 Attention — EARLY-MID -->
    <g transform="translate(315, 0)">
      <rect x="0" y="20" width="90" height="70" rx="6" fill="#111827" stroke="#2dd4bf" stroke-width="1" opacity="0.8"/>
      <text x="45" y="14" text-anchor="middle" fill="#94a3b8" font-size="10" font-weight="600">Block 3</text>
      <rect x="5" y="28" width="16" height="54" rx="3" fill="#1e3a5f" opacity="0.4"/>
      <rect x="25" y="28" width="16" height="54" rx="3" fill="#1e3a5f" opacity="0.4"/>
      <rect x="45" y="28" width="16" height="54" rx="3" fill="url(#deltaGrad)" opacity="0.9" filter="url(#glow)"/>
      <rect x="65" y="28" width="16" height="54" rx="3" fill="url(#attnGrad)" opacity="0.9" filter="url(#glow)"/>
      <circle cx="53" cy="24" r="5" fill="url(#saeGrad)" filter="url(#saeGlow)"/>
      <circle cx="73" cy="24" r="5" fill="url(#saeGrad)" filter="url(#saeGlow)"/>
      <text x="13" y="100" text-anchor="middle" fill="#334155" font-size="8">12</text>
      <text x="33" y="100" text-anchor="middle" fill="#334155" font-size="8">13</text>
      <text x="53" y="100" text-anchor="middle" fill="#60a5fa" font-size="8" font-weight="700">14</text>
      <text x="73" y="100" text-anchor="middle" fill="#fb923c" font-size="8" font-weight="700">15</text>
    </g>

    <!-- BLOCK 4 (layers 16-19) -->
    <g transform="translate(420, 0)">
      <rect x="0" y="20" width="90" height="70" rx="6" fill="#111827" stroke="#1e293b" stroke-width="0.5" opacity="0.6"/>
      <text x="45" y="14" text-anchor="middle" fill="#475569" font-size="10" font-weight="500">Block 4</text>
      <rect x="5" y="28" width="16" height="54" rx="3" fill="#1e3a5f" opacity="0.4"/>
      <rect x="25" y="28" width="16" height="54" rx="3" fill="#1e3a5f" opacity="0.4"/>
      <rect x="45" y="28" width="16" height="54" rx="3" fill="#1e3a5f" opacity="0.4"/>
      <rect x="65" y="28" width="16" height="54" rx="3" fill="#3b1f0b" opacity="0.4"/>
      <text x="13" y="100" text-anchor="middle" fill="#334155" font-size="8">16</text>
      <text x="33" y="100" text-anchor="middle" fill="#334155" font-size="8">17</text>
      <text x="53" y="100" text-anchor="middle" fill="#334155" font-size="8">18</text>
      <text x="73" y="100" text-anchor="middle" fill="#334155" font-size="8">19</text>
    </g>

    <!-- BLOCK 5 (layers 20-23) — SAE: layer 21 control, layer 22 DeltaNet, layer 23 Attention — MID — 3 SAEs! -->
    <g transform="translate(525, 0)">
      <rect x="0" y="20" width="90" height="70" rx="6" fill="#111827" stroke="#2dd4bf" stroke-width="1.5" opacity="0.9"/>
      <text x="45" y="14" text-anchor="middle" fill="#e2e8f0" font-size="10" font-weight="700">Block 5</text>
      <rect x="5" y="28" width="16" height="54" rx="3" fill="#1e3a5f" opacity="0.4"/>
      <rect x="25" y="28" width="16" height="54" rx="3" fill="url(#deltaGrad)" opacity="0.9" filter="url(#glow)"/>
      <rect x="45" y="28" width="16" height="54" rx="3" fill="url(#deltaGrad)" opacity="0.9" filter="url(#glow)"/>
      <rect x="65" y="28" width="16" height="54" rx="3" fill="url(#attnGrad)" opacity="0.9" filter="url(#glow)"/>
      <circle cx="33" cy="24" r="5" fill="url(#saeGrad)" filter="url(#saeGlow)"/>
      <circle cx="53" cy="24" r="5" fill="url(#saeGrad)" filter="url(#saeGlow)"/>
      <circle cx="73" cy="24" r="5" fill="url(#saeGrad)" filter="url(#saeGlow)"/>
      <text x="13" y="100" text-anchor="middle" fill="#334155" font-size="8">20</text>
      <text x="33" y="100" text-anchor="middle" fill="#60a5fa" font-size="8" font-weight="700">21</text>
      <text x="53" y="100" text-anchor="middle" fill="#60a5fa" font-size="8" font-weight="700">22</text>
      <text x="73" y="100" text-anchor="middle" fill="#fb923c" font-size="8" font-weight="700">23</text>
    </g>

    <!-- BLOCK 6 (layers 24-27) -->
    <g transform="translate(630, 0)">
      <rect x="0" y="20" width="90" height="70" rx="6" fill="#111827" stroke="#1e293b" stroke-width="0.5" opacity="0.6"/>
      <text x="45" y="14" text-anchor="middle" fill="#475569" font-size="10" font-weight="500">Block 6</text>
      <rect x="5" y="28" width="16" height="54" rx="3" fill="#1e3a5f" opacity="0.4"/>
      <rect x="25" y="28" width="16" height="54" rx="3" fill="#1e3a5f" opacity="0.4"/>
      <rect x="45" y="28" width="16" height="54" rx="3" fill="#1e3a5f" opacity="0.4"/>
      <rect x="65" y="28" width="16" height="54" rx="3" fill="#3b1f0b" opacity="0.4"/>
      <text x="13" y="100" text-anchor="middle" fill="#334155" font-size="8">24</text>
      <text x="33" y="100" text-anchor="middle" fill="#334155" font-size="8">25</text>
      <text x="53" y="100" text-anchor="middle" fill="#334155" font-size="8">26</text>
      <text x="73" y="100" text-anchor="middle" fill="#334155" font-size="8">27</text>
    </g>

    <!-- BLOCK 7 (layers 28-31) -->
    <g transform="translate(735, 0)">
      <rect x="0" y="20" width="90" height="70" rx="6" fill="#111827" stroke="#1e293b" stroke-width="0.5" opacity="0.6"/>
      <text x="45" y="14" text-anchor="middle" fill="#475569" font-size="10" font-weight="500">Block 7</text>
      <rect x="5" y="28" width="16" height="54" rx="3" fill="#1e3a5f" opacity="0.4"/>
      <rect x="25" y="28" width="16" height="54" rx="3" fill="#1e3a5f" opacity="0.4"/>
      <rect x="45" y="28" width="16" height="54" rx="3" fill="#1e3a5f" opacity="0.4"/>
      <rect x="65" y="28" width="16" height="54" rx="3" fill="#3b1f0b" opacity="0.4"/>
      <text x="13" y="100" text-anchor="middle" fill="#334155" font-size="8">28</text>
      <text x="33" y="100" text-anchor="middle" fill="#334155" font-size="8">29</text>
      <text x="53" y="100" text-anchor="middle" fill="#334155" font-size="8">30</text>
      <text x="73" y="100" text-anchor="middle" fill="#334155" font-size="8">31</text>
    </g>

    <!-- BLOCK 8 (layers 32-35) — SAE: layer 34 DeltaNet, layer 35 Attention — LATE -->
    <g transform="translate(840, 0)">
      <rect x="0" y="20" width="90" height="70" rx="6" fill="#111827" stroke="#2dd4bf" stroke-width="1" opacity="0.8"/>
      <text x="45" y="14" text-anchor="middle" fill="#94a3b8" font-size="10" font-weight="600">Block 8</text>
      <rect x="5" y="28" width="16" height="54" rx="3" fill="#1e3a5f" opacity="0.4"/>
      <rect x="25" y="28" width="16" height="54" rx="3" fill="#1e3a5f" opacity="0.4"/>
      <rect x="45" y="28" width="16" height="54" rx="3" fill="url(#deltaGrad)" opacity="0.9" filter="url(#glow)"/>
      <rect x="65" y="28" width="16" height="54" rx="3" fill="url(#attnGrad)" opacity="0.9" filter="url(#glow)"/>
      <circle cx="53" cy="24" r="5" fill="url(#saeGrad)" filter="url(#saeGlow)"/>
      <circle cx="73" cy="24" r="5" fill="url(#saeGrad)" filter="url(#saeGlow)"/>
      <text x="13" y="100" text-anchor="middle" fill="#334155" font-size="8">32</text>
      <text x="33" y="100" text-anchor="middle" fill="#334155" font-size="8">33</text>
      <text x="53" y="100" text-anchor="middle" fill="#60a5fa" font-size="8" font-weight="700">34</text>
      <text x="73" y="100" text-anchor="middle" fill="#fb923c" font-size="8" font-weight="700">35</text>
    </g>

    <!-- BLOCK 9 (layers 36-39) -->
    <g transform="translate(945, 0)">
      <rect x="0" y="20" width="90" height="70" rx="6" fill="#111827" stroke="#1e293b" stroke-width="0.5" opacity="0.6"/>
      <text x="45" y="14" text-anchor="middle" fill="#475569" font-size="10" font-weight="500">Block 9</text>
      <rect x="5" y="28" width="16" height="54" rx="3" fill="#1e3a5f" opacity="0.4"/>
      <rect x="25" y="28" width="16" height="54" rx="3" fill="#1e3a5f" opacity="0.4"/>
      <rect x="45" y="28" width="16" height="54" rx="3" fill="#1e3a5f" opacity="0.4"/>
      <rect x="65" y="28" width="16" height="54" rx="3" fill="#3b1f0b" opacity="0.4"/>
      <text x="13" y="100" text-anchor="middle" fill="#334155" font-size="8">36</text>
      <text x="33" y="100" text-anchor="middle" fill="#334155" font-size="8">37</text>
      <text x="53" y="100" text-anchor="middle" fill="#334155" font-size="8">38</text>
      <text x="73" y="100" text-anchor="middle" fill="#334155" font-size="8">39</text>
    </g>
  </g>

  <!-- Depth labels -->
  <text x="82" y="250" fill="#475569" font-size="11" font-weight="500">Early</text>
  <text x="600" y="250" text-anchor="middle" fill="#475569" font-size="11" font-weight="500">Mid</text>
  <text x="1117" y="250" text-anchor="end" fill="#475569" font-size="11" font-weight="500">Late</text>

  <!-- Flow arrow -->
  <line x1="100" y1="240" x2="1080" y2="240" stroke="#334155" stroke-width="1" stroke-dasharray="4,3"/>
  <polygon points="1080,236 1090,240 1080,244" fill="#334155"/>
  <text x="1110" y="244" fill="#475569" font-size="9">Output</text>

  <!-- SAE detail cards -->
  <!-- Early pair (Block 1) -->
  <g transform="translate(82, 270)">
    <rect x="0" y="0" width="230" height="130" rx="10" fill="#111827" stroke="#1e293b" stroke-width="1" filter="url(#softShadow)"/>
    <text x="115" y="24" text-anchor="middle" fill="#e2e8f0" font-size="12" font-weight="600">Early (Block 1, ~15%)</text>
    <line x1="16" y1="34" x2="214" y2="34" stroke="#1e293b" stroke-width="0.5"/>
    <circle cx="28" cy="54" r="4" fill="url(#deltaGrad)"/>
    <text x="38" y="58" fill="#93c5fd" font-size="11">sae_delta_early</text>
    <text x="210" y="58" text-anchor="end" fill="#475569" font-size="10">L6</text>
    <circle cx="28" cy="78" r="4" fill="url(#attnGrad)"/>
    <text x="38" y="82" fill="#fdba74" font-size="11">sae_attn_early</text>
    <text x="210" y="82" text-anchor="end" fill="#475569" font-size="10">L7</text>
    <text x="115" y="106" text-anchor="middle" fill="#334155" font-size="9">k=128, dict=8,192 (4x)</text>
    <text x="115" y="120" text-anchor="middle" fill="#334155" font-size="9">Paired DeltaNet vs Attention</text>
  </g>

  <!-- Early-mid pair (Block 3) -->
  <g transform="translate(332, 270)">
    <rect x="0" y="0" width="230" height="130" rx="10" fill="#111827" stroke="#1e293b" stroke-width="1" filter="url(#softShadow)"/>
    <text x="115" y="24" text-anchor="middle" fill="#e2e8f0" font-size="12" font-weight="600">Early-Mid (Block 3, ~35%)</text>
    <line x1="16" y1="34" x2="214" y2="34" stroke="#1e293b" stroke-width="0.5"/>
    <circle cx="28" cy="54" r="4" fill="url(#deltaGrad)"/>
    <text x="38" y="58" fill="#93c5fd" font-size="11">sae_delta_earlymid</text>
    <text x="210" y="58" text-anchor="end" fill="#475569" font-size="10">L14</text>
    <circle cx="28" cy="78" r="4" fill="url(#attnGrad)"/>
    <text x="38" y="82" fill="#fdba74" font-size="11">sae_attn_earlymid</text>
    <text x="210" y="82" text-anchor="end" fill="#475569" font-size="10">L15</text>
    <text x="115" y="106" text-anchor="middle" fill="#334155" font-size="9">k=96, dict=16,384 (8x)</text>
    <text x="115" y="120" text-anchor="middle" fill="#334155" font-size="9">Paired DeltaNet vs Attention</text>
  </g>

  <!-- Mid triple (Block 5) -->
  <g transform="translate(582, 270)">
    <rect x="0" y="0" width="250" height="150" rx="10" fill="#111827" stroke="#2dd4bf" stroke-width="1" filter="url(#softShadow)"/>
    <text x="125" y="24" text-anchor="middle" fill="#e2e8f0" font-size="12" font-weight="700">Mid (Block 5, ~55%) — 3 SAEs</text>
    <line x1="16" y1="34" x2="234" y2="34" stroke="#1e293b" stroke-width="0.5"/>
    <circle cx="28" cy="54" r="4" fill="url(#deltaGrad)"/>
    <text x="38" y="58" fill="#93c5fd" font-size="11">sae_delta_mid_pos1</text>
    <text x="230" y="58" text-anchor="end" fill="#475569" font-size="10">L21</text>
    <text x="230" y="70" text-anchor="end" fill="#2dd4bf" font-size="8" font-style="italic">positional control</text>
    <circle cx="28" cy="84" r="4" fill="url(#deltaGrad)"/>
    <text x="38" y="88" fill="#93c5fd" font-size="11">sae_delta_mid</text>
    <text x="230" y="88" text-anchor="end" fill="#475569" font-size="10">L22</text>
    <circle cx="28" cy="108" r="4" fill="url(#attnGrad)"/>
    <text x="38" y="112" fill="#fdba74" font-size="11">sae_attn_mid</text>
    <text x="230" y="112" text-anchor="end" fill="#475569" font-size="10">L23</text>
    <text x="125" y="133" text-anchor="middle" fill="#334155" font-size="9">k=64, dict=16,384 (8x)</text>
    <text x="125" y="145" text-anchor="middle" fill="#2dd4bf" font-size="9" font-weight="500">Isolates layer-type from position</text>
  </g>

  <!-- Late pair (Block 8) -->
  <g transform="translate(852, 270)">
    <rect x="0" y="0" width="230" height="130" rx="10" fill="#111827" stroke="#1e293b" stroke-width="1" filter="url(#softShadow)"/>
    <text x="115" y="24" text-anchor="middle" fill="#e2e8f0" font-size="12" font-weight="600">Late (Block 8, ~85%)</text>
    <line x1="16" y1="34" x2="214" y2="34" stroke="#1e293b" stroke-width="0.5"/>
    <circle cx="28" cy="54" r="4" fill="url(#deltaGrad)"/>
    <text x="38" y="58" fill="#93c5fd" font-size="11">sae_delta_late</text>
    <text x="210" y="58" text-anchor="end" fill="#475569" font-size="10">L34</text>
    <circle cx="28" cy="78" r="4" fill="url(#attnGrad)"/>
    <text x="38" y="82" fill="#fdba74" font-size="11">sae_attn_late</text>
    <text x="210" y="82" text-anchor="end" fill="#475569" font-size="10">L35</text>
    <text x="115" y="106" text-anchor="middle" fill="#334155" font-size="9">k=64, dict=16,384 (8x)</text>
    <text x="115" y="120" text-anchor="middle" fill="#334155" font-size="9">Paired DeltaNet vs Attention</text>
  </g>

  <!-- Stats bar -->
  <g transform="translate(0, 450)">
    <rect x="60" y="0" width="1080" height="50" rx="8" fill="#0f172a" stroke="#1e293b" stroke-width="1"/>
    <text x="168" y="30" text-anchor="middle" fill="#f8fafc" font-size="13" font-weight="600">9 SAEs</text>
    <text x="168" y="44" text-anchor="middle" fill="#64748b" font-size="9">8,192 — 16,384 features</text>
    <line x1="276" y1="10" x2="276" y2="40" stroke="#1e293b" stroke-width="1"/>
    <text x="384" y="30" text-anchor="middle" fill="#f8fafc" font-size="13" font-weight="600">40 Layers</text>
    <text x="384" y="44" text-anchor="middle" fill="#64748b" font-size="9">30 DeltaNet + 10 Attention</text>
    <line x1="492" y1="10" x2="492" y2="40" stroke="#1e293b" stroke-width="1"/>
    <text x="600" y="30" text-anchor="middle" fill="#f8fafc" font-size="13" font-weight="600">200M tokens</text>
    <text x="600" y="44" text-anchor="middle" fill="#64748b" font-size="9">per SAE (1.8B total)</text>
    <line x1="708" y1="10" x2="708" y2="40" stroke="#1e293b" stroke-width="1"/>
    <text x="816" y="30" text-anchor="middle" fill="#f8fafc" font-size="13" font-weight="600">TopK (k=64-128)</text>
    <text x="816" y="44" text-anchor="middle" fill="#64748b" font-size="9">depth-dependent sparsity</text>
    <line x1="924" y1="10" x2="924" y2="40" stroke="#1e293b" stroke-width="1"/>
    <text x="1032" y="30" text-anchor="middle" fill="#f8fafc" font-size="13" font-weight="600">5 Traits</text>
    <text x="1032" y="44" text-anchor="middle" fill="#64748b" font-size="9">15 sub-behaviors</text>
  </g>

  <!-- Data mix section -->
  <g transform="translate(60, 530)">
    <text x="0" y="18" fill="#94a3b8" font-size="13" font-weight="600" letter-spacing="1">TRAINING DATA MIX</text>
    <rect x="0" y="30" width="378" height="22" rx="4" fill="#1e3a5f" opacity="0.6"/>
    <rect x="378" y="30" width="378" height="22" rx="0" fill="#3b1f0b" opacity="0.6"/>
    <rect x="756" y="30" width="324" height="22" rx="4" fill="#1a3326" opacity="0.6"/>
    <text x="189" y="46" text-anchor="middle" fill="#93c5fd" font-size="10" font-weight="500">UltraChat 200k — 35%</text>
    <text x="567" y="46" text-anchor="middle" fill="#fdba74" font-size="10" font-weight="500">WildChat-1M — 35%</text>
    <text x="918" y="46" text-anchor="middle" fill="#6ee7b7" font-size="10" font-weight="500">Synthetic Tool-Use — 30%</text>
  </g>

  <!-- MoE note -->
  <g transform="translate(60, 590)">
    <text x="0" y="14" fill="#64748b" font-size="10" font-weight="500" letter-spacing="0.3">MoE: 256 total experts per layer, 8 routed + 1 shared active per token — hidden_dim = 2048</text>
  </g>

  <!-- Branding -->
  <text x="600" y="630" text-anchor="middle" fill="#1e293b" font-size="11" letter-spacing="2">QWENSCOPE</text>
</svg>
