<svg xmlns="http://www.w3.org/2000/svg" viewBox="0 0 1200 720" font-family="'Inter', 'Segoe UI', system-ui, -apple-system, sans-serif">
  <defs>
    <linearGradient id="bg" x1="0" y1="0" x2="0" y2="1">
      <stop offset="0%" stop-color="#0a0a1a"/>
      <stop offset="100%" stop-color="#0d1025"/>
    </linearGradient>
    <linearGradient id="deltaGrad" x1="0" y1="0" x2="1" y2="1">
      <stop offset="0%" stop-color="#3b82f6"/>
      <stop offset="100%" stop-color="#6366f1"/>
    </linearGradient>
    <linearGradient id="attnGrad" x1="0" y1="0" x2="1" y2="1">
      <stop offset="0%" stop-color="#f97316"/>
      <stop offset="100%" stop-color="#ef4444"/>
    </linearGradient>
    <linearGradient id="saeGrad" x1="0" y1="0" x2="0" y2="1">
      <stop offset="0%" stop-color="#10b981"/>
      <stop offset="100%" stop-color="#059669"/>
    </linearGradient>
    <filter id="glow">
      <feGaussianBlur stdDeviation="3" result="blur"/>
      <feComposite in="SourceGraphic" in2="blur" operator="over"/>
    </filter>
    <filter id="saeGlow">
      <feGaussianBlur stdDeviation="4" result="blur"/>
      <feMerge>
        <feMergeNode in="blur"/>
        <feMergeNode in="SourceGraphic"/>
      </feMerge>
    </filter>
    <filter id="softShadow">
      <feDropShadow dx="0" dy="2" stdDeviation="4" flood-color="#000" flood-opacity="0.3"/>
    </filter>
  </defs>

  <!-- Background -->
  <rect width="1200" height="720" fill="url(#bg)"/>

  <!-- Subtle grid -->
  <g opacity="0.04" stroke="#fff">
    <line x1="0" y1="180" x2="1200" y2="180"/>
    <line x1="0" y1="360" x2="1200" y2="360"/>
    <line x1="0" y1="540" x2="1200" y2="540"/>
  </g>

  <!-- Title -->
  <text x="600" y="52" text-anchor="middle" fill="#f8fafc" font-size="26" font-weight="700" letter-spacing="0.5">QwenScope — SAE Hook Points on Qwen 3.5-27B</text>
  <text x="600" y="80" text-anchor="middle" fill="#94a3b8" font-size="14" letter-spacing="0.3">64 layers = 16 blocks × [DeltaNet, DeltaNet, DeltaNet, Attention]</text>

  <!-- Legend -->
  <g transform="translate(283, 660)">
    <rect x="0" y="-12" width="18" height="18" rx="3" fill="url(#deltaGrad)" opacity="0.9"/>
    <text x="24" y="2" fill="#93c5fd" font-size="12" font-weight="500">GatedDeltaNet Layer</text>
    <rect x="180" y="-12" width="18" height="18" rx="3" fill="url(#attnGrad)" opacity="0.9"/>
    <text x="204" y="2" fill="#fdba74" font-size="12" font-weight="500">Attention Layer</text>
    <circle cx="369" cy="-3" r="7" fill="url(#saeGrad)" filter="url(#saeGlow)"/>
    <text x="382" y="2" fill="#6ee7b7" font-size="12" font-weight="500">SAE Hook Point</text>
    <rect x="520" y="-12" width="18" height="18" rx="3" fill="none" stroke="#475569" stroke-width="1" stroke-dasharray="3,2"/>
    <text x="544" y="2" fill="#64748b" font-size="12" font-weight="500">Inactive Layer</text>
  </g>

  <!-- Block rendering: 16 blocks, 4 layers each -->
  <!-- Block width: 62, step: 70, gap: 8 -->
  <g transform="translate(43, 110)">

    <!-- BLOCK 0 -->
    <g transform="translate(0, 0)">
      <rect x="0" y="20" width="62" height="70" rx="6" fill="#111827" stroke="#1e293b" stroke-width="0.5" opacity="0.6"/>
      <text x="31" y="14" text-anchor="middle" fill="#475569" font-size="9" font-weight="500">Block 0</text>
      <rect x="4" y="28" width="12" height="54" rx="3" fill="#1e3a5f" opacity="0.4"/>
      <rect x="18" y="28" width="12" height="54" rx="3" fill="#1e3a5f" opacity="0.4"/>
      <rect x="32" y="28" width="12" height="54" rx="3" fill="#1e3a5f" opacity="0.4"/>
      <rect x="46" y="28" width="12" height="54" rx="3" fill="#3b1f0b" opacity="0.4"/>
      <text x="10" y="100" text-anchor="middle" fill="#334155" font-size="7">0</text>
      <text x="24" y="100" text-anchor="middle" fill="#334155" font-size="7">1</text>
      <text x="38" y="100" text-anchor="middle" fill="#334155" font-size="7">2</text>
      <text x="52" y="100" text-anchor="middle" fill="#334155" font-size="7">3</text>
    </g>

    <!-- BLOCK 1 -->
    <g transform="translate(70, 0)">
      <rect x="0" y="20" width="62" height="70" rx="6" fill="#111827" stroke="#1e293b" stroke-width="0.5" opacity="0.6"/>
      <text x="31" y="14" text-anchor="middle" fill="#475569" font-size="9" font-weight="500">Block 1</text>
      <rect x="4" y="28" width="12" height="54" rx="3" fill="#1e3a5f" opacity="0.4"/>
      <rect x="18" y="28" width="12" height="54" rx="3" fill="#1e3a5f" opacity="0.4"/>
      <rect x="32" y="28" width="12" height="54" rx="3" fill="#1e3a5f" opacity="0.4"/>
      <rect x="46" y="28" width="12" height="54" rx="3" fill="#3b1f0b" opacity="0.4"/>
      <text x="10" y="100" text-anchor="middle" fill="#334155" font-size="7">4</text>
      <text x="24" y="100" text-anchor="middle" fill="#334155" font-size="7">5</text>
      <text x="38" y="100" text-anchor="middle" fill="#334155" font-size="7">6</text>
      <text x="52" y="100" text-anchor="middle" fill="#334155" font-size="7">7</text>
    </g>

    <!-- BLOCK 2 (SAE: layer 10 DeltaNet, layer 11 Attention) -->
    <g transform="translate(140, 0)">
      <rect x="0" y="20" width="62" height="70" rx="6" fill="#111827" stroke="#2dd4bf" stroke-width="1" opacity="0.8"/>
      <text x="31" y="14" text-anchor="middle" fill="#94a3b8" font-size="9" font-weight="600">Block 2</text>
      <rect x="4" y="28" width="12" height="54" rx="3" fill="#1e3a5f" opacity="0.4"/>
      <rect x="18" y="28" width="12" height="54" rx="3" fill="#1e3a5f" opacity="0.4"/>
      <rect x="32" y="28" width="12" height="54" rx="3" fill="url(#deltaGrad)" opacity="0.9" filter="url(#glow)"/>
      <rect x="46" y="28" width="12" height="54" rx="3" fill="url(#attnGrad)" opacity="0.9" filter="url(#glow)"/>
      <circle cx="38" cy="24" r="5" fill="url(#saeGrad)" filter="url(#saeGlow)"/>
      <circle cx="52" cy="24" r="5" fill="url(#saeGrad)" filter="url(#saeGlow)"/>
      <text x="10" y="100" text-anchor="middle" fill="#334155" font-size="7">8</text>
      <text x="24" y="100" text-anchor="middle" fill="#334155" font-size="7">9</text>
      <text x="38" y="100" text-anchor="middle" fill="#60a5fa" font-size="7" font-weight="700">10</text>
      <text x="52" y="100" text-anchor="middle" fill="#fb923c" font-size="7" font-weight="700">11</text>
    </g>

    <!-- BLOCK 3 -->
    <g transform="translate(210, 0)">
      <rect x="0" y="20" width="62" height="70" rx="6" fill="#111827" stroke="#1e293b" stroke-width="0.5" opacity="0.6"/>
      <text x="31" y="14" text-anchor="middle" fill="#475569" font-size="9" font-weight="500">Block 3</text>
      <rect x="4" y="28" width="12" height="54" rx="3" fill="#1e3a5f" opacity="0.4"/>
      <rect x="18" y="28" width="12" height="54" rx="3" fill="#1e3a5f" opacity="0.4"/>
      <rect x="32" y="28" width="12" height="54" rx="3" fill="#1e3a5f" opacity="0.4"/>
      <rect x="46" y="28" width="12" height="54" rx="3" fill="#3b1f0b" opacity="0.4"/>
      <text x="10" y="100" text-anchor="middle" fill="#334155" font-size="7">12</text>
      <text x="24" y="100" text-anchor="middle" fill="#334155" font-size="7">13</text>
      <text x="38" y="100" text-anchor="middle" fill="#334155" font-size="7">14</text>
      <text x="52" y="100" text-anchor="middle" fill="#334155" font-size="7">15</text>
    </g>

    <!-- BLOCK 4 -->
    <g transform="translate(280, 0)">
      <rect x="0" y="20" width="62" height="70" rx="6" fill="#111827" stroke="#1e293b" stroke-width="0.5" opacity="0.6"/>
      <text x="31" y="14" text-anchor="middle" fill="#475569" font-size="9" font-weight="500">Block 4</text>
      <rect x="4" y="28" width="12" height="54" rx="3" fill="#1e3a5f" opacity="0.4"/>
      <rect x="18" y="28" width="12" height="54" rx="3" fill="#1e3a5f" opacity="0.4"/>
      <rect x="32" y="28" width="12" height="54" rx="3" fill="#1e3a5f" opacity="0.4"/>
      <rect x="46" y="28" width="12" height="54" rx="3" fill="#3b1f0b" opacity="0.4"/>
      <text x="10" y="100" text-anchor="middle" fill="#334155" font-size="7">16</text>
      <text x="24" y="100" text-anchor="middle" fill="#334155" font-size="7">17</text>
      <text x="38" y="100" text-anchor="middle" fill="#334155" font-size="7">18</text>
      <text x="52" y="100" text-anchor="middle" fill="#334155" font-size="7">19</text>
    </g>

    <!-- BLOCK 5 (SAE: layer 22 DeltaNet, layer 23 Attention) -->
    <g transform="translate(350, 0)">
      <rect x="0" y="20" width="62" height="70" rx="6" fill="#111827" stroke="#2dd4bf" stroke-width="1" opacity="0.8"/>
      <text x="31" y="14" text-anchor="middle" fill="#94a3b8" font-size="9" font-weight="600">Block 5</text>
      <rect x="4" y="28" width="12" height="54" rx="3" fill="#1e3a5f" opacity="0.4"/>
      <rect x="18" y="28" width="12" height="54" rx="3" fill="#1e3a5f" opacity="0.4"/>
      <rect x="32" y="28" width="12" height="54" rx="3" fill="url(#deltaGrad)" opacity="0.9" filter="url(#glow)"/>
      <rect x="46" y="28" width="12" height="54" rx="3" fill="url(#attnGrad)" opacity="0.9" filter="url(#glow)"/>
      <circle cx="38" cy="24" r="5" fill="url(#saeGrad)" filter="url(#saeGlow)"/>
      <circle cx="52" cy="24" r="5" fill="url(#saeGrad)" filter="url(#saeGlow)"/>
      <text x="10" y="100" text-anchor="middle" fill="#334155" font-size="7">20</text>
      <text x="24" y="100" text-anchor="middle" fill="#334155" font-size="7">21</text>
      <text x="38" y="100" text-anchor="middle" fill="#60a5fa" font-size="7" font-weight="700">22</text>
      <text x="52" y="100" text-anchor="middle" fill="#fb923c" font-size="7" font-weight="700">23</text>
    </g>

    <!-- BLOCK 6 -->
    <g transform="translate(420, 0)">
      <rect x="0" y="20" width="62" height="70" rx="6" fill="#111827" stroke="#1e293b" stroke-width="0.5" opacity="0.6"/>
      <text x="31" y="14" text-anchor="middle" fill="#475569" font-size="9" font-weight="500">Block 6</text>
      <rect x="4" y="28" width="12" height="54" rx="3" fill="#1e3a5f" opacity="0.4"/>
      <rect x="18" y="28" width="12" height="54" rx="3" fill="#1e3a5f" opacity="0.4"/>
      <rect x="32" y="28" width="12" height="54" rx="3" fill="#1e3a5f" opacity="0.4"/>
      <rect x="46" y="28" width="12" height="54" rx="3" fill="#3b1f0b" opacity="0.4"/>
      <text x="10" y="100" text-anchor="middle" fill="#334155" font-size="7">24</text>
      <text x="24" y="100" text-anchor="middle" fill="#334155" font-size="7">25</text>
      <text x="38" y="100" text-anchor="middle" fill="#334155" font-size="7">26</text>
      <text x="52" y="100" text-anchor="middle" fill="#334155" font-size="7">27</text>
    </g>

    <!-- BLOCK 7 -->
    <g transform="translate(490, 0)">
      <rect x="0" y="20" width="62" height="70" rx="6" fill="#111827" stroke="#1e293b" stroke-width="0.5" opacity="0.6"/>
      <text x="31" y="14" text-anchor="middle" fill="#475569" font-size="9" font-weight="500">Block 7</text>
      <rect x="4" y="28" width="12" height="54" rx="3" fill="#1e3a5f" opacity="0.4"/>
      <rect x="18" y="28" width="12" height="54" rx="3" fill="#1e3a5f" opacity="0.4"/>
      <rect x="32" y="28" width="12" height="54" rx="3" fill="#1e3a5f" opacity="0.4"/>
      <rect x="46" y="28" width="12" height="54" rx="3" fill="#3b1f0b" opacity="0.4"/>
      <text x="10" y="100" text-anchor="middle" fill="#334155" font-size="7">28</text>
      <text x="24" y="100" text-anchor="middle" fill="#334155" font-size="7">29</text>
      <text x="38" y="100" text-anchor="middle" fill="#334155" font-size="7">30</text>
      <text x="52" y="100" text-anchor="middle" fill="#334155" font-size="7">31</text>
    </g>

    <!-- BLOCK 8 (SAE: layer 33 DeltaNet control, layer 34 DeltaNet, layer 35 Attention) — 3 SAEs! -->
    <g transform="translate(560, 0)">
      <rect x="0" y="20" width="62" height="70" rx="6" fill="#111827" stroke="#2dd4bf" stroke-width="1.5" opacity="0.9"/>
      <text x="31" y="14" text-anchor="middle" fill="#e2e8f0" font-size="9" font-weight="700">Block 8</text>
      <rect x="4" y="28" width="12" height="54" rx="3" fill="#1e3a5f" opacity="0.4"/>
      <rect x="18" y="28" width="12" height="54" rx="3" fill="url(#deltaGrad)" opacity="0.9" filter="url(#glow)"/>
      <rect x="32" y="28" width="12" height="54" rx="3" fill="url(#deltaGrad)" opacity="0.9" filter="url(#glow)"/>
      <rect x="46" y="28" width="12" height="54" rx="3" fill="url(#attnGrad)" opacity="0.9" filter="url(#glow)"/>
      <circle cx="24" cy="24" r="5" fill="url(#saeGrad)" filter="url(#saeGlow)"/>
      <circle cx="38" cy="24" r="5" fill="url(#saeGrad)" filter="url(#saeGlow)"/>
      <circle cx="52" cy="24" r="5" fill="url(#saeGrad)" filter="url(#saeGlow)"/>
      <text x="10" y="100" text-anchor="middle" fill="#334155" font-size="7">32</text>
      <text x="24" y="100" text-anchor="middle" fill="#60a5fa" font-size="7" font-weight="700">33</text>
      <text x="38" y="100" text-anchor="middle" fill="#60a5fa" font-size="7" font-weight="700">34</text>
      <text x="52" y="100" text-anchor="middle" fill="#fb923c" font-size="7" font-weight="700">35</text>
    </g>

    <!-- BLOCK 9 -->
    <g transform="translate(630, 0)">
      <rect x="0" y="20" width="62" height="70" rx="6" fill="#111827" stroke="#1e293b" stroke-width="0.5" opacity="0.6"/>
      <text x="31" y="14" text-anchor="middle" fill="#475569" font-size="9" font-weight="500">Block 9</text>
      <rect x="4" y="28" width="12" height="54" rx="3" fill="#1e3a5f" opacity="0.4"/>
      <rect x="18" y="28" width="12" height="54" rx="3" fill="#1e3a5f" opacity="0.4"/>
      <rect x="32" y="28" width="12" height="54" rx="3" fill="#1e3a5f" opacity="0.4"/>
      <rect x="46" y="28" width="12" height="54" rx="3" fill="#3b1f0b" opacity="0.4"/>
      <text x="10" y="100" text-anchor="middle" fill="#334155" font-size="7">36</text>
      <text x="24" y="100" text-anchor="middle" fill="#334155" font-size="7">37</text>
      <text x="38" y="100" text-anchor="middle" fill="#334155" font-size="7">38</text>
      <text x="52" y="100" text-anchor="middle" fill="#334155" font-size="7">39</text>
    </g>

    <!-- BLOCK 10 -->
    <g transform="translate(700, 0)">
      <rect x="0" y="20" width="62" height="70" rx="6" fill="#111827" stroke="#1e293b" stroke-width="0.5" opacity="0.6"/>
      <text x="31" y="14" text-anchor="middle" fill="#475569" font-size="9" font-weight="500">Block 10</text>
      <rect x="4" y="28" width="12" height="54" rx="3" fill="#1e3a5f" opacity="0.4"/>
      <rect x="18" y="28" width="12" height="54" rx="3" fill="#1e3a5f" opacity="0.4"/>
      <rect x="32" y="28" width="12" height="54" rx="3" fill="#1e3a5f" opacity="0.4"/>
      <rect x="46" y="28" width="12" height="54" rx="3" fill="#3b1f0b" opacity="0.4"/>
      <text x="10" y="100" text-anchor="middle" fill="#334155" font-size="7">40</text>
      <text x="24" y="100" text-anchor="middle" fill="#334155" font-size="7">41</text>
      <text x="38" y="100" text-anchor="middle" fill="#334155" font-size="7">42</text>
      <text x="52" y="100" text-anchor="middle" fill="#334155" font-size="7">43</text>
    </g>

    <!-- BLOCK 11 -->
    <g transform="translate(770, 0)">
      <rect x="0" y="20" width="62" height="70" rx="6" fill="#111827" stroke="#1e293b" stroke-width="0.5" opacity="0.6"/>
      <text x="31" y="14" text-anchor="middle" fill="#475569" font-size="9" font-weight="500">Block 11</text>
      <rect x="4" y="28" width="12" height="54" rx="3" fill="#1e3a5f" opacity="0.4"/>
      <rect x="18" y="28" width="12" height="54" rx="3" fill="#1e3a5f" opacity="0.4"/>
      <rect x="32" y="28" width="12" height="54" rx="3" fill="#1e3a5f" opacity="0.4"/>
      <rect x="46" y="28" width="12" height="54" rx="3" fill="#3b1f0b" opacity="0.4"/>
      <text x="10" y="100" text-anchor="middle" fill="#334155" font-size="7">44</text>
      <text x="24" y="100" text-anchor="middle" fill="#334155" font-size="7">45</text>
      <text x="38" y="100" text-anchor="middle" fill="#334155" font-size="7">46</text>
      <text x="52" y="100" text-anchor="middle" fill="#334155" font-size="7">47</text>
    </g>

    <!-- BLOCK 12 -->
    <g transform="translate(840, 0)">
      <rect x="0" y="20" width="62" height="70" rx="6" fill="#111827" stroke="#1e293b" stroke-width="0.5" opacity="0.6"/>
      <text x="31" y="14" text-anchor="middle" fill="#475569" font-size="9" font-weight="500">Block 12</text>
      <rect x="4" y="28" width="12" height="54" rx="3" fill="#1e3a5f" opacity="0.4"/>
      <rect x="18" y="28" width="12" height="54" rx="3" fill="#1e3a5f" opacity="0.4"/>
      <rect x="32" y="28" width="12" height="54" rx="3" fill="#1e3a5f" opacity="0.4"/>
      <rect x="46" y="28" width="12" height="54" rx="3" fill="#3b1f0b" opacity="0.4"/>
      <text x="10" y="100" text-anchor="middle" fill="#334155" font-size="7">48</text>
      <text x="24" y="100" text-anchor="middle" fill="#334155" font-size="7">49</text>
      <text x="38" y="100" text-anchor="middle" fill="#334155" font-size="7">50</text>
      <text x="52" y="100" text-anchor="middle" fill="#334155" font-size="7">51</text>
    </g>

    <!-- BLOCK 13 (SAE: layer 54 DeltaNet, layer 55 Attention) -->
    <g transform="translate(910, 0)">
      <rect x="0" y="20" width="62" height="70" rx="6" fill="#111827" stroke="#2dd4bf" stroke-width="1" opacity="0.8"/>
      <text x="31" y="14" text-anchor="middle" fill="#94a3b8" font-size="9" font-weight="600">Block 13</text>
      <rect x="4" y="28" width="12" height="54" rx="3" fill="#1e3a5f" opacity="0.4"/>
      <rect x="18" y="28" width="12" height="54" rx="3" fill="#1e3a5f" opacity="0.4"/>
      <rect x="32" y="28" width="12" height="54" rx="3" fill="url(#deltaGrad)" opacity="0.9" filter="url(#glow)"/>
      <rect x="46" y="28" width="12" height="54" rx="3" fill="url(#attnGrad)" opacity="0.9" filter="url(#glow)"/>
      <circle cx="38" cy="24" r="5" fill="url(#saeGrad)" filter="url(#saeGlow)"/>
      <circle cx="52" cy="24" r="5" fill="url(#saeGrad)" filter="url(#saeGlow)"/>
      <text x="10" y="100" text-anchor="middle" fill="#334155" font-size="7">52</text>
      <text x="24" y="100" text-anchor="middle" fill="#334155" font-size="7">53</text>
      <text x="38" y="100" text-anchor="middle" fill="#60a5fa" font-size="7" font-weight="700">54</text>
      <text x="52" y="100" text-anchor="middle" fill="#fb923c" font-size="7" font-weight="700">55</text>
    </g>

    <!-- BLOCK 14 -->
    <g transform="translate(980, 0)">
      <rect x="0" y="20" width="62" height="70" rx="6" fill="#111827" stroke="#1e293b" stroke-width="0.5" opacity="0.6"/>
      <text x="31" y="14" text-anchor="middle" fill="#475569" font-size="9" font-weight="500">Block 14</text>
      <rect x="4" y="28" width="12" height="54" rx="3" fill="#1e3a5f" opacity="0.4"/>
      <rect x="18" y="28" width="12" height="54" rx="3" fill="#1e3a5f" opacity="0.4"/>
      <rect x="32" y="28" width="12" height="54" rx="3" fill="#1e3a5f" opacity="0.4"/>
      <rect x="46" y="28" width="12" height="54" rx="3" fill="#3b1f0b" opacity="0.4"/>
      <text x="10" y="100" text-anchor="middle" fill="#334155" font-size="7">56</text>
      <text x="24" y="100" text-anchor="middle" fill="#334155" font-size="7">57</text>
      <text x="38" y="100" text-anchor="middle" fill="#334155" font-size="7">58</text>
      <text x="52" y="100" text-anchor="middle" fill="#334155" font-size="7">59</text>
    </g>

    <!-- BLOCK 15 -->
    <g transform="translate(1050, 0)">
      <rect x="0" y="20" width="62" height="70" rx="6" fill="#111827" stroke="#1e293b" stroke-width="0.5" opacity="0.6"/>
      <text x="31" y="14" text-anchor="middle" fill="#475569" font-size="9" font-weight="500">Block 15</text>
      <rect x="4" y="28" width="12" height="54" rx="3" fill="#1e3a5f" opacity="0.4"/>
      <rect x="18" y="28" width="12" height="54" rx="3" fill="#1e3a5f" opacity="0.4"/>
      <rect x="32" y="28" width="12" height="54" rx="3" fill="#1e3a5f" opacity="0.4"/>
      <rect x="46" y="28" width="12" height="54" rx="3" fill="#3b1f0b" opacity="0.4"/>
      <text x="10" y="100" text-anchor="middle" fill="#334155" font-size="7">60</text>
      <text x="24" y="100" text-anchor="middle" fill="#334155" font-size="7">61</text>
      <text x="38" y="100" text-anchor="middle" fill="#334155" font-size="7">62</text>
      <text x="52" y="100" text-anchor="middle" fill="#334155" font-size="7">63</text>
    </g>
  </g>

  <!-- Depth labels -->
  <text x="43" y="250" fill="#475569" font-size="11" font-weight="500">Early</text>
  <text x="600" y="250" text-anchor="middle" fill="#475569" font-size="11" font-weight="500">Mid</text>
  <text x="1112" y="250" text-anchor="end" fill="#475569" font-size="11" font-weight="500">Late</text>

  <!-- Flow arrow -->
  <line x1="60" y1="240" x2="1100" y2="240" stroke="#334155" stroke-width="1" stroke-dasharray="4,3"/>
  <polygon points="1100,236 1110,240 1100,244" fill="#334155"/>
  <text x="1130" y="244" fill="#475569" font-size="9">Output</text>

  <!-- SAE detail cards — centered: 4 cards total 890px wide, padding = (1200-890)/2 = 155 each side -->
  <!-- Early pair -->
  <g transform="translate(155, 270)">
    <rect x="0" y="0" width="200" height="120" rx="10" fill="#111827" stroke="#1e293b" stroke-width="1" filter="url(#softShadow)"/>
    <text x="100" y="24" text-anchor="middle" fill="#e2e8f0" font-size="12" font-weight="600">Early (Block 2)</text>
    <line x1="16" y1="34" x2="184" y2="34" stroke="#1e293b" stroke-width="0.5"/>
    <circle cx="28" cy="54" r="4" fill="url(#deltaGrad)"/>
    <text x="38" y="58" fill="#93c5fd" font-size="11">sae_delta_early</text>
    <text x="180" y="58" text-anchor="end" fill="#475569" font-size="10">L10</text>
    <circle cx="28" cy="78" r="4" fill="url(#attnGrad)"/>
    <text x="38" y="82" fill="#fdba74" font-size="11">sae_attn_early</text>
    <text x="180" y="82" text-anchor="end" fill="#475569" font-size="10">L11</text>
    <text x="100" y="106" text-anchor="middle" fill="#334155" font-size="9">Paired DeltaNet vs Attention</text>
  </g>

  <!-- Early-mid pair -->
  <g transform="translate(375, 270)">
    <rect x="0" y="0" width="200" height="120" rx="10" fill="#111827" stroke="#1e293b" stroke-width="1" filter="url(#softShadow)"/>
    <text x="100" y="24" text-anchor="middle" fill="#e2e8f0" font-size="12" font-weight="600">Early-Mid (Block 5)</text>
    <line x1="16" y1="34" x2="184" y2="34" stroke="#1e293b" stroke-width="0.5"/>
    <circle cx="28" cy="54" r="4" fill="url(#deltaGrad)"/>
    <text x="38" y="58" fill="#93c5fd" font-size="11">sae_delta_earlymid</text>
    <text x="180" y="58" text-anchor="end" fill="#475569" font-size="10">L22</text>
    <circle cx="28" cy="78" r="4" fill="url(#attnGrad)"/>
    <text x="38" y="82" fill="#fdba74" font-size="11">sae_attn_earlymid</text>
    <text x="180" y="82" text-anchor="end" fill="#475569" font-size="10">L23</text>
    <text x="100" y="106" text-anchor="middle" fill="#334155" font-size="9">Paired DeltaNet vs Attention</text>
  </g>

  <!-- Mid triple -->
  <g transform="translate(595, 270)">
    <rect x="0" y="0" width="230" height="140" rx="10" fill="#111827" stroke="#2dd4bf" stroke-width="1" filter="url(#softShadow)"/>
    <text x="115" y="24" text-anchor="middle" fill="#e2e8f0" font-size="12" font-weight="700">Mid (Block 8) — 3 SAEs</text>
    <line x1="16" y1="34" x2="214" y2="34" stroke="#1e293b" stroke-width="0.5"/>
    <circle cx="28" cy="54" r="4" fill="url(#deltaGrad)"/>
    <text x="38" y="58" fill="#93c5fd" font-size="11">sae_delta_mid_pos1</text>
    <text x="210" y="58" text-anchor="end" fill="#475569" font-size="10">L33</text>
    <text x="210" y="70" text-anchor="end" fill="#2dd4bf" font-size="8" font-style="italic">positional control</text>
    <circle cx="28" cy="84" r="4" fill="url(#deltaGrad)"/>
    <text x="38" y="88" fill="#93c5fd" font-size="11">sae_delta_mid</text>
    <text x="210" y="88" text-anchor="end" fill="#475569" font-size="10">L34</text>
    <circle cx="28" cy="108" r="4" fill="url(#attnGrad)"/>
    <text x="38" y="112" fill="#fdba74" font-size="11">sae_attn_mid</text>
    <text x="210" y="112" text-anchor="end" fill="#475569" font-size="10">L35</text>
    <text x="115" y="133" text-anchor="middle" fill="#2dd4bf" font-size="9" font-weight="500">Isolates layer-type from position</text>
  </g>

  <!-- Late pair -->
  <g transform="translate(845, 270)">
    <rect x="0" y="0" width="200" height="120" rx="10" fill="#111827" stroke="#1e293b" stroke-width="1" filter="url(#softShadow)"/>
    <text x="100" y="24" text-anchor="middle" fill="#e2e8f0" font-size="12" font-weight="600">Late (Block 13)</text>
    <line x1="16" y1="34" x2="184" y2="34" stroke="#1e293b" stroke-width="0.5"/>
    <circle cx="28" cy="54" r="4" fill="url(#deltaGrad)"/>
    <text x="38" y="58" fill="#93c5fd" font-size="11">sae_delta_late</text>
    <text x="180" y="58" text-anchor="end" fill="#475569" font-size="10">L54</text>
    <circle cx="28" cy="78" r="4" fill="url(#attnGrad)"/>
    <text x="38" y="82" fill="#fdba74" font-size="11">sae_attn_late</text>
    <text x="180" y="82" text-anchor="end" fill="#475569" font-size="10">L55</text>
    <text x="100" y="106" text-anchor="middle" fill="#334155" font-size="9">Paired DeltaNet vs Attention</text>
  </g>

  <!-- Stats bar — 5 equal sections of 216px each, bar starts at x=60 width=1080 -->
  <g transform="translate(0, 450)">
    <rect x="60" y="0" width="1080" height="50" rx="8" fill="#0f172a" stroke="#1e293b" stroke-width="1"/>
    <text x="168" y="30" text-anchor="middle" fill="#f8fafc" font-size="13" font-weight="600">9 SAEs</text>
    <text x="168" y="44" text-anchor="middle" fill="#64748b" font-size="9">40,960 features each</text>
    <line x1="276" y1="10" x2="276" y2="40" stroke="#1e293b" stroke-width="1"/>
    <text x="384" y="30" text-anchor="middle" fill="#f8fafc" font-size="13" font-weight="600">64 Layers</text>
    <text x="384" y="44" text-anchor="middle" fill="#64748b" font-size="9">48 DeltaNet + 16 Attention</text>
    <line x1="492" y1="10" x2="492" y2="40" stroke="#1e293b" stroke-width="1"/>
    <text x="600" y="30" text-anchor="middle" fill="#f8fafc" font-size="13" font-weight="600">200M tokens</text>
    <text x="600" y="44" text-anchor="middle" fill="#64748b" font-size="9">per SAE (1.8B total)</text>
    <line x1="708" y1="10" x2="708" y2="40" stroke="#1e293b" stroke-width="1"/>
    <text x="816" y="30" text-anchor="middle" fill="#f8fafc" font-size="13" font-weight="600">TopK (k=64)</text>
    <text x="816" y="44" text-anchor="middle" fill="#64748b" font-size="9">8x expansion ratio</text>
    <line x1="924" y1="10" x2="924" y2="40" stroke="#1e293b" stroke-width="1"/>
    <text x="1032" y="30" text-anchor="middle" fill="#f8fafc" font-size="13" font-weight="600">5 Traits</text>
    <text x="1032" y="44" text-anchor="middle" fill="#64748b" font-size="9">15 sub-behaviors</text>
  </g>

  <!-- Data mix section -->
  <g transform="translate(60, 530)">
    <text x="0" y="18" fill="#94a3b8" font-size="13" font-weight="600" letter-spacing="1">TRAINING DATA MIX</text>
    <rect x="0" y="30" width="378" height="22" rx="4" fill="#1e3a5f" opacity="0.6"/>
    <rect x="378" y="30" width="378" height="22" rx="0" fill="#3b1f0b" opacity="0.6"/>
    <rect x="756" y="30" width="324" height="22" rx="4" fill="#1a3326" opacity="0.6"/>
    <text x="189" y="46" text-anchor="middle" fill="#93c5fd" font-size="10" font-weight="500">UltraChat 200k — 35%</text>
    <text x="567" y="46" text-anchor="middle" fill="#fdba74" font-size="10" font-weight="500">WildChat-1M — 35%</text>
    <text x="918" y="46" text-anchor="middle" fill="#6ee7b7" font-size="10" font-weight="500">Synthetic Tool-Use — 30%</text>
  </g>

  <!-- Branding -->
  <text x="600" y="620" text-anchor="middle" fill="#1e293b" font-size="11" letter-spacing="2">QWENSCOPE</text>
</svg>